<?xml version="1.0" standalone="no"?><!DOCTYPE svg PUBLIC "-//W3C//DTD SVG 1.1//EN" "http://www.w3.org/Graphics/SVG/1.1/DTD/svg11.dtd"><svg t="1533794298161" class="icon" style="" viewBox="0 0 8236 1024" version="1.1" xmlns="http://www.w3.org/2000/svg" p-id="2852" xmlns:xlink="http://www.w3.org/1999/xlink" width="1608.59375" height="200"><defs><style type="text/css"></style></defs><path d="M6401.839481 762.251158H6718.750454V154.590718h-315.127234z m-480.420387 0h315.127234V154.590718h-315.127234zM6401.839481 11.891594V59.457969h480.420386v703.982348a93.94359 93.94359 0 0 1-93.94359 93.94359h-386.476796v96.916489h-165.293153v-96.916489h-480.420386V59.457969h480.420386V11.891594zM5520.077806 762.845737h-153.996138V387.665955H4762.583286v375.179782h-153.996139v-374.585202a94.53817 94.53817 0 0 1 93.943591-94.53817h723.603478a94.53817 94.53817 0 0 1 93.94359 93.349011z m19.62113-665.334668a93.94359 93.94359 0 0 1 90.970692 93.34901v92.159852h-153.996139V191.454659H4648.423986v91.565272h-153.996138V191.454659a94.53817 94.53817 0 0 1 92.754431-93.94359h81.457417L4648.423986 2.972898H4816.095458l20.215709 94.538171h153.996139V2.972898h153.996139v94.538171H5291.759207l18.43197-94.538171h166.482312l-19.621129 94.538171z m-297.289843 530.36508v232.480657h388.260535v93.94359h-450.096822a94.53817 94.53817 0 0 1-94.538171-93.94359v-171.833529a425.719055 425.719055 0 0 1-118.915937 159.347355c-146.266603 118.915937-393.017173 109.402662-460.799257 102.267706v-92.754431h126.050894a405.503346 405.503346 0 0 0 227.12944-90.970692 349.612855 349.612855 0 0 0 115.348459-256.858424v-29.728984h150.428661a464.961315 464.961315 0 0 1-17.837391 148.050342zM3234.513493 951.327498V398.36839h118.915937V951.327498z m340.69416-637.984003V951.327498h-153.401559V313.343495H3234.513493V218.805325h246.15599a94.53817 94.53817 0 0 1 94.53817 94.53817z m618.957453 312.748915v231.291497h178.373906V951.327498h-237.831874A93.94359 93.94359 0 0 1 4043.141866 857.383907v-259.236743A717.063102 717.063102 0 0 1 3805.309991 951.327498h-219.994483a745.008347 745.008347 0 0 0 258.047583-265.77712 488.744502 488.744502 0 0 0 41.620578-93.349011 365.071927 365.071927 0 0 0 13.675333-89.781532V218.805325h149.834081v312.154335h143.293704V107.024344h-398.368389v519.068066h-151.61782V13.080753h612.417076a94.53817 94.53817 0 0 1 93.943591 93.943591v519.068066zM3575.207653 107.024344v26.756085h-341.28874v-118.915937h246.75057a94.53817 94.53817 0 0 1 94.53817 92.159852z m4399.889677-95.13275h155.185299v846.681473a95.13275 95.13275 0 0 1-92.159852 92.754431h-1030.406596V11.891594h969.164889z m-811.601271 845.492313h813.385011V107.024344h-813.385011z m761.656578-63.620026h-713.495624v-95.727329h272.912076V526.203022h-252.696366v-95.13275h252.696366V259.236743h-252.696366v-95.13275h670.091306v95.13275h-249.723468v171.833529h252.101787v95.13275h-252.101787v171.83353h178.373906v-85.024896h95.13275v178.373906z" fill="#3D3A39" p-id="2853"></path><path d="M787.818084 51.133853a92.754431 92.754431 0 0 1 80.862837-48.160955h151.61782L642.146061 909.70692a79.673678 79.673678 0 0 1-71.349562 44.593476H416.20578l-416.20578-951.327498h167.076892a93.94359 93.94359 0 0 1 82.051997 49.350114L514.906008 713.495623z m1242.671544 72.538722q109.997242-118.915937 338.315842-118.915938h429.881113v59.457969a104.646025 104.646025 0 0 1-99.889388 104.646025h-329.991725A195.022137 195.022137 0 0 0 2199.944839 243.183092a426.313635 426.313635 0 0 0-54.106752 243.183091A374.585202 374.585202 0 0 0 2199.944839 713.495623a203.940832 203.940832 0 0 0 171.833529 69.565824h224.751121V558.310325h-267.560858V390.044274h386.476796a93.94359 93.94359 0 0 1 86.214054 93.349011v366.261087a104.646025 104.646025 0 0 1-104.646025 104.646024h-328.207986a654.037655 654.037655 0 0 1-182.535964-19.621129 356.747812 356.747812 0 0 1-118.915937-64.214606 353.180334 353.180334 0 0 1-109.997242-151.61782 623.714091 623.714091 0 0 1-36.269361-222.967383c0-168.266051 36.269361-291.938626 109.402662-372.206883z m-865.113443 0q108.808083-118.915937 338.315841-118.915938h332.370045v59.457969a104.646025 104.646025 0 0 1-104.646025 102.267706h-223.561962a202.751673 202.751673 0 0 0-178.373906 78.484519 472.096271 472.096271 0 0 0-54.701331 259.831323 356.747812 356.747812 0 0 0 52.917592 220.589063 222.372803 222.372803 0 0 0 178.373906 63.620027h328.207987v59.457968a104.646025 104.646025 0 0 1-104.646025 104.646025h-231.886078a648.686438 648.686438 0 0 1-178.373905-19.02655 356.747812 356.747812 0 0 1-118.915938-64.809186 356.747812 356.747812 0 0 1-109.997242-151.61782 623.714091 623.714091 0 0 1-36.26936-222.967382q1.783739-250.912628 111.186401-371.612304z" fill="#DF2422" p-id="2854"></path></svg>